<?xml version="1.0" encoding="iso-8859-1"?>
<!-- Generator: Adobe Illustrator 19.0.0, SVG Export Plug-In . SVG Version: 6.00 Build 0)  -->
<svg version="1.1" id="Capa_1" xmlns="http://www.w3.org/2000/svg" xmlns:xlink="http://www.w3.org/1999/xlink" x="0px" y="0px"
	 viewBox="0 0 512 512" style="enable-background:new 0 0 512 512;" xml:space="preserve">
<g>
	<g>
		<path d="M364.167,30h-6.334c-4.575,0-8.975,0.749-13.099,2.112C340.129,13.689,323.443,0,303.614,0h-5.228
			C287.952,0,278.393,3.797,271,10.072C263.607,3.797,254.048,0,243.614,0h-5.228c-10.824,0-20.708,4.083-28.207,10.784
			C202.316,4.068,192.127,0,181,0c-24.813,0-45,20.187-45,45v47.58c-17.459,6.192-30,22.865-30,42.42v64.434
			c0,38.355,16.539,76.269,47.829,109.642c7.849,8.371,12.171,19.301,12.171,30.777V512h210c0-11.45,0-172.389,0-182.836
			c0-6.949,1.643-13.908,4.751-20.125C384.188,300.332,406,269.004,406,219.59c0-31.085,0-116.943,0-147.757
			C406,48.766,387.234,30,364.167,30z M346,137.614V71.833C346,65.308,351.308,60,357.833,60h6.334
			C370.692,60,376,65.308,376,71.833c0,19.103,0,45.862,0,66.334c0,6.525-5.308,11.833-11.833,11.833h-6.334
			c-6.525,0-11.833-5.308-11.833-11.833V137.614z M286,42.386C286,35.556,291.557,30,298.386,30h5.228
			C310.443,30,316,35.556,316,42.386c0,11.334,0,83.556,0,95.228c0,6.83-5.557,12.386-12.386,12.386h-5.228
			c-6.83,0-12.386-5.556-12.386-12.386C286,137.614,286,63.296,286,42.386z M226,42.386C226,35.556,231.557,30,238.386,30h5.228
			C250.443,30,256,35.556,256,42.386V90h-30c0,0-0.032-46.748-0.082-47.614H226z M166,45c0-8.271,6.729-15,15-15s15,6.729,15,15v45
			h-30V45z M376.001,219.59c0,41.251-18.336,66.672-22.082,76.033c-5.18,10.36-7.918,21.958-7.918,33.541
			c0,14.238,0,132.349,0,152.836H196V339.853c0-19.127-7.204-37.344-20.286-51.297C157.597,269.233,136,238.085,136,199.434V135
			c0-8.271,6.729-15.1,15-15.1h102.43C247.239,137.361,230.556,150,211,150h-30v30c41.355,0,75,33.645,75,75h30
			c0-33.818-16.071-63.954-40.977-83.171c6.304-3.223,12.089-7.319,17.21-12.116C269.692,171.871,283.107,180,298.386,180h5.228
			c10.352,0,19.844-3.735,27.213-9.922c7.293,6.182,16.719,9.922,27.007,9.922h6.334c4.109,0,8.078-0.606,11.833-1.715V219.59z"/>
	</g>
</g>
<g>
</g>
<g>
</g>
<g>
</g>
<g>
</g>
<g>
</g>
<g>
</g>
<g>
</g>
<g>
</g>
<g>
</g>
<g>
</g>
<g>
</g>
<g>
</g>
<g>
</g>
<g>
</g>
<g>
</g>
</svg>
